<svg xmlns="http://www.w3.org/2000/svg" xmlns:svg="http://www.w3.org/2000/svg" id="svg7675" width="171.608" height="90.468" version="1.1"><defs id="defs7677"><clipPath id="clipPath7501" clipPathUnits="userSpaceOnUse"><path id="path7503" d="m 55.75,490.59 155.5,0 0,-98.81 -155.5,0 0,98.81 z" clip-rule="evenodd"/></clipPath><clipPath id="clipPath7507" clipPathUnits="userSpaceOnUse"><path id="path7509" d="M 0,792 612,792 612,0 0,0 0,792 z"/></clipPath><clipPath id="clipPath7513" clipPathUnits="userSpaceOnUse"><path id="path7515" d="m 0.06,792 612,0 0,-792 -612,0 0,792 z"/></clipPath></defs><metadata id="metadata7680"/><g id="layer1" transform="translate(-254.625,-346.125)"><path id="path7517" fill="#000" fill-opacity="1" fill-rule="nonzero" stroke="#000" stroke-dasharray="none" stroke-linecap="butt" stroke-linejoin="miter" stroke-miterlimit="4" stroke-opacity="1" stroke-width=".313" d="m 343.61812,346.14513 1.25,8.125 -2.5,0 1.25,-8.125 z"/><path id="path7519" fill="#000" fill-opacity="1" fill-rule="nonzero" stroke="none" d="m 420.33187,435.34263 -8.105,1.25 0,-2.5 8.105,1.25"/><path id="path7521" fill="none" stroke="#000" stroke-dasharray="none" stroke-linecap="butt" stroke-linejoin="round" stroke-miterlimit="4" stroke-opacity="1" stroke-width=".313" d="m 417.18687,435.34263 -73.56875,0 0,-86.6775"/><path id="path7527" fill="#000" fill-opacity="1" fill-rule="nonzero" stroke="#000" stroke-dasharray="none" stroke-linecap="butt" stroke-linejoin="miter" stroke-miterlimit="4" stroke-opacity="1" stroke-width=".313" d="m 256.07437,346.14513 1.25,7.5 -2.5,0 1.25,-7.5 z"/><path id="path7529" fill="#000" fill-opacity="1" fill-rule="nonzero" stroke="none" d="m 332.78812,435.34263 -8.105,1.25 0,-2.5 8.105,1.25"/><path id="path7531" fill="none" stroke="#000" stroke-dasharray="none" stroke-linecap="butt" stroke-linejoin="round" stroke-miterlimit="4" stroke-opacity="1" stroke-width=".313" d="m 329.64312,435.34263 -73.56875,0 0,-86.6775"/><path id="path7537" fill="#000" fill-opacity="1" fill-rule="nonzero" stroke="none" d="m 339.60187,391.46763 -7.5,1.25 0,-2.5 7.5,1.25"/><text id="text7539" x="330.422" y="400.183" font-size="15"><tspan id="tspan7541" x="330.422" y="400.183" fill="#000" fill-opacity="1" fill-rule="nonzero" stroke="none" font-family="Symbol" font-size="10" font-variant="normal" font-weight="normal" writing-mode="lr-tb" style="-inkscape-font-specification:Symbol">Φ</tspan></text><path id="path7543" fill="none" stroke="#000" stroke-dasharray="none" stroke-linecap="butt" stroke-linejoin="round" stroke-miterlimit="4" stroke-opacity="1" stroke-width="1.25" d="m 346.24062,382.26138 72.965,18.70875 m -102.85125,5.2975 c 4.27375,-5.28125 0.57,-14.12 -8.26875,-19.73 -8.83875,-5.61 -19.48,-5.8775 -23.75375,-0.5975 -4.27375,5.28125 -0.56875,14.12 8.26875,19.73125 8.83875,5.61 19.48,5.8775 23.75375,0.59625 z"/><path id="path7545" fill="red" fill-opacity="1" fill-rule="nonzero" stroke="#000" stroke-dasharray="none" stroke-linecap="butt" stroke-linejoin="miter" stroke-miterlimit="4" stroke-opacity="1" stroke-width=".313" d="m 366.55562,368.20138 2.84125,-2.8425 2.85,2.8425 -2.85,2.84875 -2.84125,-2.84875 z"/><path id="path7547" fill="red" fill-opacity="1" fill-rule="nonzero" stroke="#000" stroke-dasharray="none" stroke-linecap="butt" stroke-linejoin="miter" stroke-miterlimit="4" stroke-opacity="1" stroke-width=".313" d="m 290.17937,391.96138 2.84125,-2.84125 2.85,2.84125 -2.85,2.85 -2.84125,-2.85 z"/><path id="path7549" fill="red" fill-opacity="1" fill-rule="nonzero" stroke="#000" stroke-dasharray="none" stroke-linecap="butt" stroke-linejoin="miter" stroke-miterlimit="4" stroke-opacity="1" stroke-width=".313" d="m 302.05937,397.90138 2.84125,-2.84125 2.85,2.84125 -2.85,2.85 -2.84125,-2.85 z"/><path id="path7551" fill="red" fill-opacity="1" fill-rule="nonzero" stroke="#000" stroke-dasharray="none" stroke-linecap="butt" stroke-linejoin="miter" stroke-miterlimit="4" stroke-opacity="1" stroke-width=".313" d="m 402.19687,378.59638 2.84125,-2.84125 2.85,2.84125 -2.85,2.85 -2.84125,-2.85 z"/><path id="path7553" fill="#0f0" fill-opacity="1" fill-rule="nonzero" stroke="#000" stroke-dasharray="none" stroke-linecap="butt" stroke-linejoin="miter" stroke-miterlimit="4" stroke-opacity="1" stroke-width=".313" d="m 294.52937,366.84513 c 1.5675,0 2.85,1.27375 2.85,2.84125 0,1.5675 -1.2825,2.85 -2.85,2.85 -1.575,0 -2.865,-1.2675 -2.865,-2.85 0,-1.58375 1.29,-2.84125 2.865,-2.84125 z"/><path id="path7555" fill="#0f0" fill-opacity="1" fill-rule="nonzero" stroke="#000" stroke-dasharray="none" stroke-linecap="butt" stroke-linejoin="miter" stroke-miterlimit="4" stroke-opacity="1" stroke-width=".313" d="m 321.25937,417.33513 c 1.5675,0 2.85,1.275 2.85,2.84125 0,1.5675 -1.2825,2.85 -2.85,2.85 -1.575,0 -2.865,-1.26625 -2.865,-2.85 0,-1.5825 1.29,-2.84125 2.865,-2.84125 z"/><path id="path7557" fill="#0f0" fill-opacity="1" fill-rule="nonzero" stroke="#000" stroke-dasharray="none" stroke-linecap="butt" stroke-linejoin="miter" stroke-miterlimit="4" stroke-opacity="1" stroke-width=".313" d="m 275.22437,408.42513 c 1.5675,0 2.84875,1.275 2.84875,2.84125 0,1.5675 -1.28125,2.85 -2.84875,2.85 -1.575,0 -2.86625,-1.26625 -2.86625,-2.85 0,-1.5825 1.29125,-2.84125 2.86625,-2.84125 z"/><path id="path7559" fill="#0f0" fill-opacity="1" fill-rule="nonzero" stroke="#000" stroke-dasharray="none" stroke-linecap="butt" stroke-linejoin="miter" stroke-miterlimit="4" stroke-opacity="1" stroke-width=".313" d="m 373.87562,403.97013 c 1.5675,0 2.85,1.27375 2.85,2.84125 0,1.5675 -1.2825,2.85 -2.85,2.85 -1.575,0 -2.865,-1.26625 -2.865,-2.85 0,-1.5825 1.29,-2.84125 2.865,-2.84125 z"/><path id="path7561" fill="#0f0" fill-opacity="1" fill-rule="nonzero" stroke="#000" stroke-dasharray="none" stroke-linecap="butt" stroke-linejoin="miter" stroke-miterlimit="4" stroke-opacity="1" stroke-width=".313" d="m 353.08562,409.91013 c 1.5675,0 2.85,1.275 2.85,2.84125 0,1.5675 -1.2825,2.85 -2.85,2.85 -1.575,0 -2.865,-1.26625 -2.865,-2.85 0,-1.5825 1.29,-2.84125 2.865,-2.84125 z"/><path id="path7563" fill="#0f0" fill-opacity="1" fill-rule="nonzero" stroke="#000" stroke-dasharray="none" stroke-linecap="butt" stroke-linejoin="miter" stroke-miterlimit="4" stroke-opacity="1" stroke-width=".313" d="m 393.18187,423.27513 c 1.56625,0 2.84875,1.275 2.84875,2.8425 0,1.56625 -1.2825,2.84875 -2.84875,2.84875 -1.575,0 -2.86625,-1.26625 -2.86625,-2.84875 0,-1.58375 1.29125,-2.8425 2.86625,-2.8425 z"/><path id="path7565" fill="none" stroke="#000" stroke-dasharray="2.5 1.25" stroke-dashoffset="0" stroke-linecap="butt" stroke-linejoin="round" stroke-miterlimit="4" stroke-opacity="1" stroke-width=".313" d="m 317.76062,391.46763 19.94625,0"/><text id="text8432" x="261.786" y="356.632" fill="#000" fill-opacity="1" stroke="none" font-family="Inconsolata" font-size="12" font-stretch="normal" font-style="normal" font-variant="normal" font-weight="500" letter-spacing="0" text-anchor="start" word-spacing="0" writing-mode="lr-tb" xml:space="preserve" style="text-align:start;line-height:125%;-inkscape-font-specification:Inconsolata Medium"><tspan id="tspan8434" x="261.786" y="356.632">Input space</tspan></text><text id="text8436" x="347.5" y="356.632" fill="#000" fill-opacity="1" stroke="none" font-family="Inconsolata" font-size="12" font-stretch="normal" font-style="normal" font-variant="normal" font-weight="500" letter-spacing="0" text-anchor="start" word-spacing="0" writing-mode="lr-tb" xml:space="preserve" style="text-align:start;line-height:125%;-inkscape-font-specification:Inconsolata Medium"><tspan id="tspan8438" x="347.5" y="356.632">Feature space</tspan></text></g></svg>