<svg xmlns="http://www.w3.org/2000/svg" xmlns:svg="http://www.w3.org/2000/svg" xmlns:xlink="http://www.w3.org/1999/xlink" id="svg2" width="214.413" height="97.832" version="1.1"><defs id="defs4"><marker id="Arrow1Mstart" orient="auto" overflow="visible" refX="0" refY="0"><path id="path3966" fill-rule="evenodd" stroke="#000" stroke-width="1pt" marker-start="none" d="M 0,0 5,-5 -12.5,0 5,5 0,0 z" transform="matrix(0.4,0,0,0.4,4,0)"/></marker><marker id="Arrow1Mend" orient="auto" overflow="visible" refX="0" refY="0"><path id="path3969" fill-rule="evenodd" stroke="#000" stroke-width="1pt" marker-start="none" d="M 0,0 5,-5 -12.5,0 5,5 0,0 z" transform="matrix(-0.4,0,0,-0.4,-4,0)"/></marker></defs><metadata id="metadata7"/><g id="layer1" transform="translate(-57.5,-55.449683)"><path id="path2987" fill="none" stroke="#000" stroke-linecap="butt" stroke-linejoin="miter" stroke-opacity="1" stroke-width="1" marker-end="url(#Arrow1Mend)" marker-start="url(#Arrow1Mstart)" d="m 60,57.362186 0,89.999994 90,0"/><path id="path2987-2" fill="none" stroke="#000" stroke-linecap="butt" stroke-linejoin="miter" stroke-opacity="1" stroke-width="1" marker-end="url(#Arrow1Mend)" marker-start="url(#Arrow1Mstart)" d="m 180,57.362183 0,89.999997 90,0"/><use id="use4906" width="214.413" height="97.832" x="0" y="0" transform="translate(25,-5)" xlink:href="#use4904"/><path id="path3007" fill="none" stroke="#000" stroke-linecap="butt" stroke-linejoin="miter" stroke-opacity="1" stroke-width="1" marker-end="url(#Arrow1Mend)" marker-start="none" d="M 180,147.36218 250,82.362183"/><rect id="rect4603" width="5" height="5" x="75" y="102.362" fill="#87aade" stroke="#000" stroke-dasharray="none" stroke-dashoffset="0" stroke-linecap="round" stroke-linejoin="round" stroke-miterlimit="4" stroke-opacity="1" stroke-width="1"/><use id="use4623" width="744.094" height="1052.362" x="0" y="0" fill="#87aade" transform="translate(5,15)" xlink:href="#rect4603"/><use id="use4625" width="744.094" height="1052.362" x="0" y="0" fill="#87aade" transform="translate(15,5)" xlink:href="#use4623"/><use id="use4627" width="744.094" height="1052.362" x="0" y="0" fill="#87aade" transform="translate(-15,-35)" xlink:href="#use4625"/><use id="use4629" width="744.094" height="1052.362" x="0" y="0" fill="#87aade" transform="translate(15,-5)" xlink:href="#use4627"/><use id="use4631" width="744.094" height="1052.362" x="0" y="0" fill="#87aade" transform="translate(15,5)" xlink:href="#use4629"/><use id="use4633" width="744.094" height="1052.362" x="0" y="0" fill="#87aade" transform="translate(5,15)" xlink:href="#use4631"/><use id="use4635" width="744.094" height="1052.362" x="0" y="0" fill="#87aade" transform="translate(-5,15)" xlink:href="#use4633"/><g id="use4701" fill="none" stroke="#000" stroke-dasharray="none" stroke-dashoffset="0" stroke-linecap="round" stroke-linejoin="round" stroke-miterlimit="4" stroke-opacity="1" stroke-width=".5"><path id="path4868" fill="#e9e9ff" fill-rule="evenodd" stroke="#000" stroke-dasharray="none" stroke-miterlimit="4" stroke-opacity="1" stroke-width=".441" d="m 247.5,-766.83144 -0.93719,3.95714 0,5.02931 0.93719,-3.87376 z"/><path id="path4870" fill="#d7d7ff" fill-rule="evenodd" stroke="#000" stroke-dasharray="none" stroke-miterlimit="4" stroke-opacity="1" stroke-width=".441" d="m 242.5,-764.0434 0,5.09647 4.06281,1.10194 0,-5.02931 z"/><path id="path4872" fill="#4d4d9f" fill-rule="evenodd" stroke="#000" stroke-dasharray="none" stroke-miterlimit="4" stroke-opacity="1" stroke-width=".441" d="m 243.38164,-768.07393 -0.88164,4.03053 4.06281,1.1691 0.93719,-3.95714 z"/><path id="path4874" fill="#afafde" fill-rule="evenodd" stroke="#000" stroke-dasharray="none" stroke-miterlimit="4" stroke-opacity="1" stroke-width=".441" d="m 243.38164,-762.89181 -0.88164,3.94488 4.06281,1.10194 0.93719,-3.87376 z"/><path id="path4876" fill="#353564" fill-rule="evenodd" stroke="#000" stroke-dasharray="none" stroke-miterlimit="4" stroke-opacity="1" stroke-width=".441" d="m 243.38164,-768.07393 0,5.18212 4.11836,1.17306 0,-5.11269 z"/><path id="path4878" fill="#8686bf" fill-rule="evenodd" stroke="#000" stroke-dasharray="none" stroke-miterlimit="4" stroke-opacity="1" stroke-width=".441" d="m 243.38164,-768.07393 -0.88164,4.03053 0,5.09647 0.88164,-3.94488 z"/></g><g id="use4705" fill="none" stroke="#000" stroke-dasharray="none" stroke-dashoffset="0" stroke-linecap="round" stroke-linejoin="round" stroke-miterlimit="4" stroke-opacity="1" stroke-width=".5"><path id="path4840" fill="#e9e9ff" fill-rule="evenodd" stroke="#000" stroke-dasharray="none" stroke-miterlimit="4" stroke-opacity="1" stroke-width=".441" d="m 247.5,-766.83144 -0.93719,3.95714 0,5.02931 0.93719,-3.87376 z"/><path id="path4842" fill="#d7d7ff" fill-rule="evenodd" stroke="#000" stroke-dasharray="none" stroke-miterlimit="4" stroke-opacity="1" stroke-width=".441" d="m 242.5,-764.0434 0,5.09647 4.06281,1.10194 0,-5.02931 z"/><path id="path4844" fill="#4d4d9f" fill-rule="evenodd" stroke="#000" stroke-dasharray="none" stroke-miterlimit="4" stroke-opacity="1" stroke-width=".441" d="m 243.38164,-768.07393 -0.88164,4.03053 4.06281,1.1691 0.93719,-3.95714 z"/><path id="path4846" fill="#afafde" fill-rule="evenodd" stroke="#000" stroke-dasharray="none" stroke-miterlimit="4" stroke-opacity="1" stroke-width=".441" d="m 243.38164,-762.89181 -0.88164,3.94488 4.06281,1.10194 0.93719,-3.87376 z"/><path id="path4848" fill="#353564" fill-rule="evenodd" stroke="#000" stroke-dasharray="none" stroke-miterlimit="4" stroke-opacity="1" stroke-width=".441" d="m 243.38164,-768.07393 0,5.18212 4.11836,1.17306 0,-5.11269 z"/><path id="path4850" fill="#8686bf" fill-rule="evenodd" stroke="#000" stroke-dasharray="none" stroke-miterlimit="4" stroke-opacity="1" stroke-width=".441" d="m 243.38164,-768.07393 -0.88164,4.03053 0,5.09647 0.88164,-3.94488 z"/></g><use id="use4707" width="744.094" height="1052.362" x="0" y="0" transform="translate(15.055545,-22.671391)" xlink:href="#use4705"/><use id="use4709" width="744.094" height="1052.362" x="0" y="0" transform="translate(24.118356,6.1730631)" xlink:href="#use4707"/><g id="use4711" fill="none" stroke="#000" stroke-dasharray="none" stroke-dashoffset="0" stroke-linecap="round" stroke-linejoin="round" stroke-miterlimit="4" stroke-opacity="1" stroke-width=".5"><path id="path4854" fill="#e9e9ff" fill-rule="evenodd" stroke="#000" stroke-dasharray="none" stroke-miterlimit="4" stroke-opacity="1" stroke-width=".441" d="m 247.5,-766.83144 -0.93719,3.95714 0,5.02931 0.93719,-3.87376 z"/><path id="path4856" fill="#d7d7ff" fill-rule="evenodd" stroke="#000" stroke-dasharray="none" stroke-miterlimit="4" stroke-opacity="1" stroke-width=".441" d="m 242.5,-764.0434 0,5.09647 4.06281,1.10194 0,-5.02931 z"/><path id="path4858" fill="#4d4d9f" fill-rule="evenodd" stroke="#000" stroke-dasharray="none" stroke-miterlimit="4" stroke-opacity="1" stroke-width=".441" d="m 243.38164,-768.07393 -0.88164,4.03053 4.06281,1.1691 0.93719,-3.95714 z"/><path id="path4860" fill="#afafde" fill-rule="evenodd" stroke="#000" stroke-dasharray="none" stroke-miterlimit="4" stroke-opacity="1" stroke-width=".441" d="m 243.38164,-762.89181 -0.88164,3.94488 4.06281,1.10194 0.93719,-3.87376 z"/><path id="path4862" fill="#353564" fill-rule="evenodd" stroke="#000" stroke-dasharray="none" stroke-miterlimit="4" stroke-opacity="1" stroke-width=".441" d="m 243.38164,-768.07393 0,5.18212 4.11836,1.17306 0,-5.11269 z"/><path id="path4864" fill="#8686bf" fill-rule="evenodd" stroke="#000" stroke-dasharray="none" stroke-miterlimit="4" stroke-opacity="1" stroke-width=".441" d="m 243.38164,-768.07393 -0.88164,4.03053 0,5.09647 0.88164,-3.94488 z"/></g><use id="use4908" width="214.413" height="97.832" x="0" y="0" transform="translate(15,15)" xlink:href="#use4906"/><path id="path4713" fill="#cdcdcd" fill-opacity="1" stroke="#000" stroke-linecap="butt" stroke-linejoin="miter" stroke-opacity=".509" stroke-width="1" d="m 170,97.362183 45,-20 35,24.999997 -5,50 z"/><path id="path4715" fill="red" fill-opacity="1" fill-rule="nonzero" stroke="#000" stroke-dasharray="none" stroke-dashoffset="0" stroke-linecap="round" stroke-linejoin="round" stroke-miterlimit="4" stroke-opacity="1" stroke-width="1" d="m 90,34.862183 c 0,1.380711 -1.119288,2.5 -2.5,2.5 -1.380712,0 -2.5,-1.119289 -2.5,-2.5 0,-1.380712 1.119288,-2.5 2.5,-2.5 1.380712,0 2.5,1.119288 2.5,2.5 z" transform="translate(2.5,65.000003)"/><use id="use4717" width="744.094" height="1052.362" x="0" y="0" fill="red" transform="translate(12.5,2.5)" xlink:href="#path4715"/><use id="use4719" width="744.094" height="1052.362" x="0" y="0" fill="red" transform="translate(0,10)" xlink:href="#path4715"/><use id="use4721" width="744.094" height="1052.362" x="0" y="0" fill="red" transform="translate(0,10)" xlink:href="#use4717"/><path id="path4715-2" fill="red" fill-opacity="1" fill-rule="nonzero" stroke="#000" stroke-dasharray="none" stroke-dashoffset="0" stroke-linecap="round" stroke-linejoin="round" stroke-miterlimit="4" stroke-opacity="1" stroke-width=".5" d="m 90,34.862183 c 0,1.380711 -1.119288,2.5 -2.5,2.5 -1.380712,0 -2.5,-1.119289 -2.5,-2.5 0,-1.380712 1.119288,-2.5 2.5,-2.5 1.380712,0 2.5,1.119288 2.5,2.5 z" transform="translate(112.5,60)"/><use id="use4717-3" width="744.094" height="1052.362" x="0" y="0" fill="red" stroke-dasharray="none" stroke-miterlimit="4" stroke-width=".5" transform="translate(40,15)" xlink:href="#path4715-2"/><use id="use4719-7" width="744.094" height="1052.362" x="0" y="0" fill="red" stroke-dasharray="none" stroke-miterlimit="4" stroke-width=".5" transform="translate(20,0)" xlink:href="#path4715-2"/><use id="use4721-5" width="744.094" height="1052.362" x="0" y="0" fill="red" stroke-dasharray="none" stroke-miterlimit="4" stroke-width=".5" transform="translate(-20,0)" xlink:href="#use4717-3"/><text id="text4750" x="70" y="67.362" fill="#000" fill-opacity="1" stroke="none" font-family="Inconsolata" font-size="12" font-stretch="normal" font-style="normal" font-variant="normal" font-weight="500" letter-spacing="0" text-anchor="start" word-spacing="0" writing-mode="lr-tb" xml:space="preserve" style="text-align:start;line-height:125%;-inkscape-font-specification:Inconsolata Medium"><tspan id="tspan4752" x="70" y="67.362">Input space</tspan></text><text id="text4754" x="190" y="67.362" fill="#000" fill-opacity="1" stroke="none" font-family="Inconsolata" font-size="12" font-stretch="normal" font-style="normal" font-variant="normal" font-weight="500" letter-spacing="0" text-anchor="start" word-spacing="0" writing-mode="lr-tb" xml:space="preserve" style="text-align:start;line-height:125%;-inkscape-font-specification:Inconsolata Medium"><tspan id="tspan4756" x="190" y="67.362">Feature space</tspan></text><path id="path4758" fill="none" stroke="#000" stroke-linecap="butt" stroke-linejoin="miter" stroke-opacity="1" stroke-width="1" d="m 145.00001,95.695525 9.99999,0"/><path id="path4760" fill="none" stroke="#000" stroke-linecap="butt" stroke-linejoin="miter" stroke-opacity="1" stroke-width="1" d="m 145.00001,102.36218 9.99999,0"/><path id="path4762" fill="none" stroke="#000" stroke-linecap="butt" stroke-linejoin="miter" stroke-opacity="1" stroke-width="1" d="m 151.66667,92.362195 6.66666,6.666658 -6.66666,6.666657"/><use id="use4635-9" width="744.094" height="1052.362" x="0" y="0" fill="#87aade" transform="translate(72.5,15.919066)" xlink:href="#use4633"/><use id="use4898" width="214.413" height="97.832" x="0" y="0" transform="translate(25,15)" xlink:href="#use4635-9"/><use id="use4900" width="214.413" height="97.832" x="0" y="0" transform="translate(-20,5.0000002)" xlink:href="#use4898"/><use id="use4902" width="214.413" height="97.832" x="0" y="0" transform="translate(5,-10)" xlink:href="#use4900"/><use id="use4904" width="214.413" height="97.832" x="0" y="0" transform="translate(-15,3.9746084e-8)" xlink:href="#use4902"/><use id="use4910" width="214.413" height="97.832" x="0" y="0" transform="translate(-20,0)" xlink:href="#use4908"/></g></svg>